<svg fill="#000000" xmlns:dc="http://purl.org/dc/elements/1.1/" xmlns:cc="http://creativecommons.org/ns#" xmlns:rdf="http://www.w3.org/1999/02/22-rdf-syntax-ns#" xmlns:svg="http://www.w3.org/2000/svg" xmlns="http://www.w3.org/2000/svg" xmlns:sodipodi="http://sodipodi.sourceforge.net/DTD/sodipodi-0.dtd" xmlns:inkscape="http://www.inkscape.org/namespaces/inkscape" viewBox="0 0 293.78119 312.97281" version="1.1" x="0px" y="0px"><g transform="translate(-190.19845,-26.702187)"><path style="" d="m 300.09529,339.37257 c -39.83855,-2.06427 -75.2433,-14.36624 -94.59834,-32.86978 -5.60337,-5.35686 -11.29023,-12.68296 -13.74676,-17.70927 l -1.55174,-3.175 0.0915,-37.21805 c 0.0784,-31.88025 0.15772,-36.86389 0.55332,-34.74861 1.3974,7.47189 6.869,16.64727 13.8909,23.29379 4.73669,4.48348 15.06188,11.28927 23.57087,15.5366 14.4449,7.2103 32.13604,12.4798 51.32916,15.28897 11.28414,1.65159 15.89026,1.93678 31.57361,1.95494 8.24618,0.01 16.11149,-0.0998 17.47846,-0.24297 l 2.48542,-0.26034 0.63036,4.67006 c 3.00275,22.24582 14.95277,42.58311 33.17856,56.46538 l 2.79642,2.12998 -2.26725,0.64241 c -3.56998,1.01154 -15.18752,3.34079 -20.6117,4.13252 -14.8986,2.17466 -29.90629,2.88124 -44.80277,2.10937 z m 109.2225,-10.94202 c -15.27244,-1.59643 -29.85486,-8.57151 -40.79783,-19.51448 -26.43535,-26.43534 -26.43535,-69.19587 0,-95.63121 24.16367,-24.16367 62.377,-26.52555 89.42958,-5.52744 3.84805,2.98685 8.74221,7.88101 11.72906,11.72907 20.99813,27.05258 18.63625,65.2659 -5.52744,89.42958 -14.41113,14.41113 -34.67251,21.62189 -54.83337,19.51448 z m 15.13166,-51.2787 c 0,-15.23118 0.1172,-27.69305 0.26044,-27.69305 0.14325,0 2.6454,2.38122 5.56033,5.2916 l 5.29987,5.29161 5.81451,-5.82253 5.8145,-5.82252 -15.43177,-15.43177 -15.43177,-15.43177 -15.43177,15.43177 -15.43177,15.43177 5.8145,5.82252 5.81451,5.82253 5.29987,-5.29161 c 2.91493,-2.91038 5.41708,-5.2916 5.56033,-5.2916 0.14324,0 0.26044,12.46187 0.26044,27.69305 v 27.69306 h 8.11389 8.11389 z M 300.09529,246.97202 c -35.6914,-2.02151 -67.20626,-11.70864 -87.56089,-26.91471 -4.56436,-3.40985 -11.2728,-9.98265 -13.91882,-13.6374 -2.69726,-3.72552 -4.91151,-7.39718 -6.79247,-11.26328 l -1.61809,-3.32578 0.0297,-36.53811 c 0.0295,-36.25571 0.0348,-36.51601 0.67579,-33.67962 1.31035,5.79774 4.5088,12.10307 8.92914,17.60263 2.57218,3.20017 6.73472,7.24901 9.06712,8.81944 0.86451,0.58209 2.9237,2.02055 4.57599,3.19658 18.94292,13.48286 44.91334,22.07583 76.9111,25.44799 8.36239,0.8813 34.6765,0.8813 43.03888,0 24.46593,-2.5784 44.94339,-8.06223 62.08889,-16.62729 8.49321,-4.2428 18.50322,-10.86157 23.63022,-15.62465 6.76382,-6.28372 11.98344,-14.93542 13.76425,-22.8147 0.64432,-2.85085 0.64612,-2.77857 0.67578,27.06321 0.0282,28.34006 -0.003,29.9119 -0.58762,29.73658 -5.06347,-1.51819 -21.14833,-1.95713 -28.83958,-0.78701 -5.25495,0.79947 -12.40503,2.59855 -16.98388,4.27341 -4.96476,1.81602 -13.44101,6.08841 -17.76473,8.95416 -12.85512,8.52038 -22.66864,19.64232 -29.45456,33.38172 -3.14084,6.35923 -4.74738,10.64637 -6.38728,17.0448 -0.67643,2.63928 -1.29223,4.86104 -1.36843,4.93724 -0.6923,0.6923 -23.67544,1.23254 -32.11055,0.75479 z m -2.11667,-92.28138 c -23.58564,-1.82181 -41.70451,-5.63509 -58.73749,-12.36182 -20.65283,-8.15629 -35.45719,-19.08895 -43.39785,-32.04825 -1.63217,-2.66373 -3.12974,-5.97055 -4.47002,-9.87037 -1.19644,-3.481294 -1.5366,-12.013828 -0.65396,-16.404168 5.29355,-26.330749 40.54063,-48.273867 88.91488,-55.354086 11.57714,-1.694468 15.80359,-1.949759 32.27916,-1.949759 16.47558,0 20.70203,0.255291 32.27917,1.949759 19.19268,2.809106 36.88262,8.078191 51.32916,15.288786 21.24696,10.60484 34.504,24.736461 37.58572,40.0653 0.88264,4.39034 0.54248,12.922874 -0.65396,16.404168 -2.72941,7.94177 -6.03195,13.29727 -12.04124,19.52645 -17.22959,17.86005 -48.36908,30.12611 -86.62662,34.12286 -5.18576,0.54175 -31.05986,0.9978 -35.80695,0.63113 z" fill="#000000" stroke-width="0.35277775"/></g></svg>