<svg fill="#000000" xmlns="http://www.w3.org/2000/svg" xmlns:xlink="http://www.w3.org/1999/xlink" version="1.1" x="0px" y="0px" viewBox="0 0 100 100" enable-background="new 0 0 100 100" xml:space="preserve"><g><path fill="none" d="M28.977,46.447c0-0.864,0.17-1.681,0.487-2.428c-1.971-2.17-3.758-4.518-5.337-7.014   c-1.959,3.917-3.073,8.327-3.073,12.998c0,5.408,1.474,10.466,4.068,14.801c0.915-5.201,2.669-10.125,5.099-14.633   C29.449,49.133,28.977,47.843,28.977,46.447z"/><path fill="none" d="M57.869,59.513c-7.14-1.185-13.762-3.909-19.525-7.816c-0.937,0.577-2.039,0.912-3.209,0.912   c-0.44,0-0.854-0.044-1.268-0.127c-2.766,5.238-4.52,11.069-5.036,17.26c2.754,2.956,6.121,5.333,9.902,6.928   C43.418,69.466,49.97,63.493,57.869,59.513z"/><path fill="none" d="M35.135,40.294c0.628,0,1.231,0.092,1.81,0.268c2.18-2.428,4.583-4.637,7.174-6.605   c-0.097-0.457-0.163-0.937-0.163-1.433c0-0.686,0.114-1.338,0.321-1.951c-2.929-2.097-6.082-3.851-9.476-5.209   c-3.167,1.961-5.926,4.508-8.13,7.498c1.644,2.888,3.588,5.59,5.79,8.04C33.266,40.511,34.157,40.294,35.135,40.294z"/><path fill="none" d="M50.103,26.372c1.63,0,3.099,0.637,4.197,1.654c3.226-1.375,6.615-2.435,10.125-3.116   c-4.248-2.447-9.181-3.858-14.433-3.858c-3.581,0-7.009,0.659-10.174,1.849c2.518,1.243,4.912,2.691,7.167,4.328   C47.892,26.688,48.967,26.372,50.103,26.372z"/><path fill="none" d="M59.324,55.373c0.372-0.795,0.915-1.503,1.601-2.065c-1.822-5.588-4.703-10.711-8.415-15.105   c-0.744,0.314-1.549,0.484-2.406,0.484c-1.323,0-2.571-0.435-3.564-1.156c-2.243,1.696-4.296,3.6-6.187,5.671   c0.586,0.944,0.937,2.06,0.937,3.245c0,0.642-0.097,1.268-0.277,1.849C46.403,51.901,52.619,54.378,59.324,55.373z"/><path fill="none" d="M69.429,28.549c-4.632,0.445-9.065,1.608-13.198,3.357c0.034,0.202,0.034,0.409,0.034,0.618   c0,0.976-0.229,1.89-0.615,2.708c4.104,4.839,7.303,10.471,9.332,16.647c2.491,0.044,4.642,1.579,5.559,3.754   c2.793-0.284,5.5-0.8,8.113-1.586c0.187-1.314,0.294-2.674,0.294-4.043C78.949,41.496,75.273,33.848,69.429,28.549z"/><path fill="none" d="M60.973,62.797c-7.374,3.467-13.536,8.78-17.995,15.287c2.245,0.564,4.6,0.864,7.014,0.864   c4.376,0,8.51-0.971,12.232-2.7c0.601-2.922,0.903-5.936,0.903-9.028c0-1.117-0.041-2.224-0.129-3.321   C62.238,63.661,61.564,63.289,60.973,62.797z"/><path fill="none" d="M67.298,63.681c0.097,1.17,0.134,2.352,0.134,3.54c0,2.09-0.134,4.146-0.375,6.17   c4.912-3.589,8.639-8.68,10.534-14.597c-2.238,0.535-4.532,0.924-6.875,1.148C70.176,61.63,68.921,62.992,67.298,63.681z"/><path d="M50.001,5C25.146,5,5,25.146,5,49.999C5,74.852,25.146,95,50.001,95C74.852,95,95,74.852,95,49.999   C95,25.146,74.852,5,50.001,5z M49.992,21.051c5.252,0,10.186,1.411,14.433,3.858c-3.51,0.681-6.899,1.742-10.125,3.116   c-1.097-1.017-2.567-1.654-4.197-1.654c-1.136,0-2.211,0.316-3.119,0.856c-2.255-1.637-4.649-3.085-7.167-4.328   C42.983,21.711,46.411,21.051,49.992,21.051z M40.353,43.202c1.89-2.07,3.943-3.975,6.187-5.671   c0.993,0.72,2.241,1.156,3.564,1.156c0.856,0,1.662-0.17,2.406-0.484c3.713,4.393,6.593,9.517,8.415,15.105   c-0.686,0.562-1.229,1.27-1.601,2.065c-6.705-0.995-12.92-3.471-18.311-7.077c0.18-0.581,0.277-1.207,0.277-1.849   C41.289,45.262,40.939,44.146,40.353,43.202z M34.801,25.365c3.394,1.358,6.547,3.112,9.476,5.209   c-0.207,0.613-0.321,1.265-0.321,1.951c0,0.496,0.066,0.976,0.163,1.433c-2.591,1.968-4.995,4.177-7.174,6.605   c-0.579-0.175-1.182-0.268-1.81-0.268c-0.978,0-1.868,0.216-2.674,0.608c-2.202-2.45-4.146-5.152-5.79-8.04   C28.875,29.873,31.634,27.325,34.801,25.365z M21.054,50.004c0-4.671,1.114-9.081,3.073-12.998   c1.579,2.496,3.367,4.844,5.337,7.014c-0.316,0.747-0.487,1.564-0.487,2.428c0,1.397,0.472,2.686,1.243,3.725   c-2.43,4.508-4.184,9.432-5.099,14.633C22.528,60.469,21.054,55.412,21.054,50.004z M28.831,69.743   c0.516-6.191,2.27-12.023,5.036-17.26c0.414,0.083,0.827,0.127,1.268,0.127c1.17,0,2.272-0.336,3.209-0.912   c5.763,3.907,12.385,6.632,19.525,7.816c-7.899,3.98-14.451,9.953-19.136,17.158C34.952,75.076,31.585,72.699,28.831,69.743z    M62.223,76.248c-3.722,1.73-7.855,2.7-12.232,2.7c-2.413,0-4.768-0.299-7.014-0.864c4.459-6.508,10.621-11.821,17.995-15.287   c0.591,0.492,1.265,0.864,2.024,1.102c0.087,1.097,0.129,2.204,0.129,3.321C63.126,70.312,62.824,73.327,62.223,76.248z    M67.057,73.39c0.241-2.024,0.375-4.08,0.375-6.17c0-1.187-0.037-2.37-0.134-3.54c1.623-0.689,2.878-2.051,3.418-3.739   c2.343-0.224,4.637-0.613,6.875-1.148C75.696,64.71,71.969,69.801,67.057,73.39z M78.654,54.047   c-2.613,0.786-5.32,1.302-8.113,1.586c-0.917-2.175-3.068-3.71-5.559-3.754c-2.029-6.177-5.228-11.808-9.332-16.647   c0.387-0.818,0.615-1.732,0.615-2.708c0-0.209,0-0.416-0.034-0.618c4.133-1.749,8.566-2.912,13.198-3.357   c5.843,5.298,9.519,12.947,9.519,21.454C78.949,51.373,78.841,52.733,78.654,54.047z"/></g></svg>